<?xml version="1.0" encoding="UTF-8"?><svg id="_图层_1" xmlns="http://www.w3.org/2000/svg" xmlns:xlink="http://www.w3.org/1999/xlink" viewBox="0 0 926.9 1145.32"><defs><style>.cls-1{fill:#574d43;}.cls-2,.cls-3,.cls-4{fill:#fc5426;}.cls-5{fill:#fff;}.cls-6{fill:#564c42;}.cls-3{stroke:#fc5426;stroke-width:2px;}.cls-3,.cls-4{stroke-miterlimit:10;}.cls-7{fill:#512f26;}.cls-8{fill:#eadaca;}.cls-4{stroke:#564c42;stroke-width:29px;}.cls-9{clip-path:url(#clippath);}.cls-10{fill:none;}.cls-11{fill:#a99d8d;}</style><clipPath id="clippath"><rect class="cls-10" x="23.67" y="23.67" width="720.67" height="720.67"/></clipPath></defs><rect class="cls-6" width="768" height="768"/><g class="cls-9"><rect class="cls-8" x="23.67" y="23.67" width="720.67" height="720.67"/><rect class="cls-4" x="96.61" y="338.7" width="843.24" height="627.58" transform="translate(-224.5 1030.19) rotate(-78.5)"/><path class="cls-6" d="M613.53,267.72l71.6,14.57-42.95,211.02c-7.77,38.16-6.44,64.75,3.98,79.8,10.41,15.04,25.93,24.66,46.54,28.86,20.3,4.13,37.71,1.3,52.21-8.52,14.5-9.81,25.32-32.24,32.46-67.29l43.99-216.14,62.3,12.68-43.01,211.32c-8.11,39.83-18.92,67.37-32.43,82.62-13.51,15.25-30.74,25.91-51.66,31.98-20.93,6.07-45.88,6.16-74.86,.26-28.52-5.8-52.07-15.4-70.65-28.78-18.58-13.38-31.99-30.4-40.21-51.04-8.23-20.64-8.29-50.87-.18-90.71l42.87-210.63Z"/><path class="cls-6" d="M266.8,945.17l60.37-296.64-102.23-20.8,9.65-47.43,263.86,53.7-9.65,47.43-102.23-20.8-60.37,296.64-59.41-12.09Z"/><path class="cls-7" d="M449.54,234.34l30.09,6.12-18.05,88.67c-3.26,16.03-2.71,27.21,1.67,33.53,4.38,6.32,10.9,10.36,19.56,12.13,8.53,1.74,15.84,.54,21.94-3.58,6.09-4.12,10.64-13.55,13.64-28.28l18.48-90.83,26.18,5.33-18.07,88.8c-3.41,16.74-7.95,28.31-13.63,34.72-5.68,6.41-12.92,10.89-21.71,13.44-8.79,2.55-19.28,2.59-31.46,.11s-21.88-6.47-29.69-12.1-13.44-12.77-16.9-21.45c-3.46-8.67-3.48-21.38-.08-38.12l18.01-88.51Z"/><path class="cls-7" d="M284.63,554.26l25.37-124.66-42.96-8.74,4.06-19.93,110.88,22.57-4.06,19.93-42.96-8.74-25.37,124.66-24.96-5.08Z"/><path class="cls-11" d="M385.27,221.26l12.69,2.58-7.61,37.39c-1.38,6.76-1.14,11.47,.7,14.14,1.85,2.67,4.59,4.37,8.25,5.11s6.68,.23,9.25-1.51c2.57-1.74,4.49-5.71,5.75-11.92l7.79-38.3,11.04,2.25-7.62,37.44c-1.44,7.06-3.35,11.94-5.75,14.64-2.39,2.7-5.45,4.59-9.15,5.67-3.71,1.08-8.13,1.09-13.26,.05-5.05-1.03-9.23-2.73-12.52-5.1s-5.67-5.39-7.13-9.04c-1.46-3.66-1.47-9.01-.03-16.07l7.6-37.32Z"/><path class="cls-11" d="M297.14,365.64l10.7-52.56-18.11-3.69,1.71-8.4,46.75,9.51-1.71,8.4-18.11-3.69-10.7,52.56-10.53-2.14Z"/><rect class="cls-7" x="394.01" y="439.25" width="115.85" height="147.55" transform="translate(111.39 -79.82) rotate(11.5)"/><rect class="cls-11" x="360.82" y="312.74" width="48.85" height="62.21" transform="translate(76.31 -69.92) rotate(11.5)"/><rect class="cls-6" x="522.72" y="662.92" width="223.22" height="124.51" transform="translate(157.36 -111.94) rotate(11.5)"/><g><rect class="cls-6" x="185.11" y="85.99" width="223.17" height="162.77" transform="translate(73.51 424.74) rotate(-78.5)"/><path class="cls-8" d="M244.28,49.47l146.76,29.87-41.91,205.95-146.76-29.87L244.28,49.47m-10.15-15.33l-47.1,231.43,172.24,35.05,47.1-231.43L234.13,34.14h0Z"/></g><path class="cls-5" d="M217.77,247.24L255.26,63.01l38.34,7.8-32.17,158.09,82.03,16.69-5.32,26.14-120.37-24.5Z"/><rect class="cls-10" x="23.67" y="23.67" width="720.67" height="720.67"/><g><path class="cls-2" d="M121.55,280.11l4.54-22.3,3.03,.62-4,19.63,7.8,1.59-.54,2.67-10.83-2.21Z"/><path class="cls-2" d="M141.49,284.42c-.55-.11-1.08-.28-1.59-.5-.51-.22-.98-.52-1.38-.88-.41-.37-.75-.79-1.02-1.28-.27-.49-.46-1-.57-1.54-.11-.54-.15-1.08-.13-1.64,.03-.55,.1-1.1,.21-1.65l3.31-16.23,3.06,.62-3.31,16.23c-.06,.28-.1,.57-.13,.86-.03,.29-.03,.58,0,.87,.03,.29,.09,.58,.19,.86s.24,.54,.41,.76c.18,.23,.4,.41,.66,.55,.27,.14,.54,.24,.82,.3,.28,.06,.57,.07,.87,.05,.3-.02,.57-.1,.82-.24,.25-.14,.48-.32,.68-.54,.2-.22,.37-.46,.51-.72,.14-.26,.25-.52,.34-.8,.09-.28,.16-.56,.22-.84l3.31-16.23,3.06,.62-3.31,16.23c-.11,.55-.26,1.08-.45,1.6-.19,.52-.44,1.01-.76,1.46-.31,.45-.69,.85-1.13,1.19-.44,.34-.92,.6-1.44,.78-.52,.18-1.06,.27-1.62,.27-.56,0-1.11-.05-1.66-.16Z"/><path class="cls-2" d="M155.2,286.96l4-19.63-4.61-.94,.54-2.67,12.26,2.5-.54,2.67-4.61-.94-4,19.63-3.03-.62Z"/><path class="cls-1" d="M181.75,292.37l.54-2.67,4.01,.82,2.19-10.74-3.58-.73,.54-2.67,6.61,1.35-2.73,13.41,3.58,.73-.54,2.67-10.62-2.16Zm9.08-17.43c-.3-.06-.6-.17-.88-.32-.28-.15-.51-.36-.68-.61-.17-.26-.27-.54-.3-.87-.03-.32-.01-.64,.05-.94,.06-.3,.17-.6,.32-.88,.15-.28,.36-.51,.61-.68,.26-.17,.54-.27,.87-.3s.63-.01,.94,.05c.3,.06,.6,.17,.88,.32,.28,.15,.51,.36,.68,.61,.17,.26,.27,.54,.3,.87,.03,.32,.01,.64-.05,.94-.06,.3-.17,.6-.32,.88-.15,.28-.36,.51-.61,.68-.26,.17-.54,.27-.87,.3-.32,.03-.63,.01-.94-.05Z"/><path class="cls-1" d="M202.12,296.77c-.47-.09-.92-.22-1.36-.37-.44-.15-.87-.35-1.27-.61-.4-.25-.77-.56-1.09-.92-.33-.36-.59-.76-.78-1.19-.2-.43-.32-.89-.37-1.37-.05-.48-.03-.96,.07-1.42l3.06,.62c-.07,.32-.05,.64,.06,.96,.1,.32,.27,.59,.51,.82,.24,.23,.51,.4,.81,.53,.3,.12,.6,.22,.91,.28,.32,.07,.65,.1,.99,.11,.34,0,.66-.05,.97-.17,.31-.12,.58-.3,.81-.55,.23-.25,.38-.53,.44-.86,.07-.32,.02-.64-.14-.96-.16-.32-.37-.58-.63-.78-.26-.2-.55-.37-.86-.52-.31-.15-.61-.3-.9-.45-.3-.15-.59-.31-.88-.48-.29-.16-.58-.34-.85-.54-.28-.19-.55-.4-.81-.62-.26-.22-.5-.46-.71-.71-.21-.25-.4-.53-.57-.83s-.3-.61-.38-.93c-.08-.32-.13-.65-.15-.99-.02-.34,.01-.68,.08-1.03,.09-.45,.25-.88,.47-1.29,.22-.42,.5-.79,.83-1.13,.33-.33,.71-.6,1.13-.81,.42-.21,.86-.36,1.32-.44,.46-.08,.92-.11,1.39-.08,.47,.03,.93,.1,1.4,.19,.44,.09,.88,.21,1.32,.36,.43,.15,.85,.35,1.24,.6,.39,.25,.74,.55,1.05,.91,.31,.36,.55,.75,.72,1.18,.18,.43,.29,.87,.33,1.33,.04,.46,.02,.93-.08,1.39l-3.06-.62c.06-.3,.05-.61-.04-.91-.09-.3-.23-.56-.44-.79s-.45-.39-.73-.51-.56-.21-.85-.27c-.3-.06-.61-.09-.93-.09-.32,0-.61,.06-.89,.2-.28,.13-.52,.32-.73,.56-.21,.24-.34,.52-.4,.82-.05,.26-.04,.52,.03,.77s.19,.47,.36,.66c.16,.19,.35,.35,.56,.49,.21,.14,.44,.26,.67,.37h.03c.44,.22,.88,.45,1.33,.69,.45,.24,.88,.5,1.29,.79,.42,.28,.8,.61,1.16,.96,.36,.36,.66,.76,.91,1.2,.25,.44,.41,.92,.48,1.43s.06,1.01-.04,1.49c-.09,.46-.26,.91-.49,1.34-.24,.43-.53,.8-.88,1.13-.35,.33-.75,.6-1.19,.8-.44,.21-.9,.34-1.36,.42-.47,.07-.94,.09-1.42,.06-.48-.03-.96-.1-1.44-.2Z"/><path class="cls-1" d="M230.79,302.62c-.41-.08-.8-.2-1.18-.35-.38-.15-.72-.37-1.02-.65-.3-.28-.55-.6-.74-.96-.19-.36-.33-.74-.42-1.14-.09-.41-.12-.82-.11-1.22,0-.41,.05-.81,.13-1.19,.11-.55,.29-1.07,.53-1.57,.24-.5,.56-.93,.96-1.29,.4-.36,.86-.64,1.37-.84,.51-.2,1.04-.34,1.57-.41,.53-.07,1.07-.08,1.62-.03,.55,.05,1.08,.13,1.61,.23l2.12,.43,.28-1.4c.07-.36,.09-.73,.05-1.1-.04-.37-.17-.7-.4-1-.22-.3-.5-.53-.83-.71-.33-.17-.67-.3-1.02-.37-.34-.07-.68-.1-1.02-.1-.34,0-.66,.08-.96,.21-.3,.14-.56,.34-.77,.62-.21,.27-.35,.57-.42,.89l-3.06-.62c.09-.47,.26-.92,.5-1.35,.24-.44,.53-.82,.87-1.17,.34-.34,.73-.61,1.16-.82,.43-.21,.89-.36,1.37-.45,.48-.09,.96-.12,1.44-.09,.48,.03,.96,.1,1.44,.2,.49,.1,.97,.23,1.45,.41,.48,.17,.93,.41,1.34,.7,.41,.3,.78,.64,1.1,1.05,.32,.4,.56,.84,.73,1.32,.17,.48,.25,.97,.25,1.49,0,.52-.05,1.02-.15,1.5l-2.25,11.04-3.06-.62,.5-2.46c-.27,.39-.59,.73-.97,1.02-.38,.29-.78,.51-1.23,.67-.44,.15-.9,.23-1.38,.24-.48,0-.95-.03-1.41-.13Zm1.76-2.42c.42,.09,.86,.11,1.3,.07,.44-.04,.84-.16,1.2-.37,.36-.21,.65-.5,.88-.88,.22-.38,.38-.78,.47-1.2l.32-1.55-2.12-.43c-.26-.05-.53-.09-.8-.11-.27-.02-.54-.03-.8-.02-.26,0-.53,.04-.8,.11-.27,.06-.51,.16-.74,.31-.23,.14-.42,.33-.56,.57-.14,.23-.24,.48-.29,.75-.06,.3-.07,.62-.02,.96,.05,.34,.17,.64,.36,.89,.19,.26,.43,.46,.73,.61,.3,.15,.6,.25,.9,.31Z"/><path class="cls-2" d="M73.81,306.03c-.55-.11-1.08-.28-1.59-.5-.51-.22-.97-.52-1.38-.88-.41-.37-.75-.8-1.02-1.28-.27-.49-.46-1-.57-1.54-.11-.54-.15-1.08-.12-1.64,.03-.55,.1-1.1,.21-1.65l3.31-16.23,3.06,.62-3.31,16.23c-.06,.28-.1,.57-.13,.86-.03,.29-.03,.58,0,.87s.09,.58,.19,.86c.1,.28,.24,.54,.41,.76,.18,.23,.4,.41,.66,.55,.27,.14,.54,.24,.82,.3,.28,.06,.57,.08,.87,.05,.3-.02,.57-.1,.82-.24,.25-.14,.48-.32,.68-.54,.2-.22,.37-.46,.51-.72,.14-.26,.25-.52,.34-.8,.09-.27,.16-.56,.22-.84l3.31-16.23,3.06,.62-3.31,16.23c-.11,.55-.26,1.08-.45,1.6-.19,.52-.44,1-.76,1.46s-.69,.85-1.13,1.19c-.44,.34-.92,.6-1.44,.78-.52,.18-1.06,.27-1.62,.27-.56,0-1.11-.05-1.66-.16Z"/><path class="cls-1" d="M83.27,307.7l3.28-16.08,3.06,.62-.53,2.58c.24-.37,.53-.71,.84-1.03,.32-.32,.68-.56,1.08-.74,.41-.18,.83-.29,1.28-.32,.45-.03,.89,0,1.31,.08,.49,.1,.95,.27,1.39,.52s.81,.57,1.1,.97c.29,.4,.51,.84,.66,1.32,.15,.48,.25,.97,.3,1.47,.05,.49,.05,.99,0,1.48-.05,.49-.12,.99-.22,1.47l-2.04,10.01-3.06-.62,2.04-10.01c.06-.28,.1-.57,.13-.86,.03-.29,.03-.58,0-.87-.03-.29-.09-.58-.19-.86-.1-.28-.24-.54-.41-.76-.18-.23-.4-.41-.66-.55-.27-.14-.54-.24-.82-.29-.28-.06-.57-.08-.87-.05-.3,.02-.57,.1-.82,.24-.25,.14-.48,.32-.68,.54-.2,.22-.37,.46-.51,.72-.14,.26-.25,.52-.34,.8-.09,.28-.16,.56-.22,.84l-2.04,10.01-3.06-.62Z"/><path class="cls-1" d="M98.9,310.89l.54-2.67,4.01,.82,2.19-10.74-3.58-.73,.54-2.67,6.61,1.35-2.73,13.41,3.58,.73-.54,2.67-10.62-2.16Zm9.08-17.43c-.3-.06-.6-.17-.88-.32s-.51-.36-.68-.61c-.17-.26-.27-.54-.3-.87-.03-.32-.01-.63,.05-.94,.06-.3,.17-.6,.32-.88,.15-.28,.36-.51,.61-.68,.26-.17,.54-.27,.87-.3,.32-.03,.64-.01,.94,.05,.3,.06,.6,.17,.88,.32,.28,.15,.51,.36,.68,.61,.17,.25,.27,.54,.3,.87,.03,.32,.01,.63-.05,.94-.06,.3-.17,.6-.32,.88-.15,.28-.36,.51-.61,.68-.26,.17-.54,.27-.87,.3-.32,.03-.64,.01-.94-.05Z"/><path class="cls-1" d="M120.81,321.83l1.79-8.8c-.24,.37-.53,.71-.86,1.03-.33,.31-.69,.56-1.09,.76-.4,.19-.82,.3-1.27,.33-.45,.02-.89,0-1.34-.1-.49-.1-.96-.27-1.41-.51-.46-.24-.84-.56-1.16-.96-.32-.4-.56-.84-.73-1.32-.17-.48-.28-.97-.33-1.47-.06-.51-.06-1.01-.02-1.52,.04-.51,.11-1,.21-1.49l.8-3.94c.1-.49,.23-.97,.39-1.45,.16-.48,.37-.95,.62-1.39,.25-.45,.54-.85,.88-1.23s.73-.68,1.18-.93c.45-.25,.93-.39,1.45-.43,.51-.04,1.01-.01,1.5,.08,.45,.09,.87,.23,1.27,.43,.4,.2,.75,.46,1.04,.8,.29,.33,.52,.71,.7,1.12,.18,.42,.31,.84,.39,1.28l.53-2.58,3.06,.62-4.54,22.3-3.06-.62Zm-.97-9.2c.28,.06,.57,.08,.87,.05,.3-.02,.58-.1,.84-.24s.49-.32,.69-.54c.2-.22,.37-.46,.51-.72,.14-.26,.25-.52,.34-.8,.09-.27,.16-.56,.22-.84l.8-3.94c.06-.28,.1-.57,.13-.86s.03-.58,0-.87c-.03-.29-.09-.58-.19-.86s-.24-.54-.43-.77c-.19-.23-.41-.41-.68-.55-.27-.14-.54-.24-.83-.29-.44-.09-.89-.08-1.33,.03-.44,.11-.83,.32-1.16,.63-.33,.31-.58,.68-.76,1.1-.18,.41-.31,.84-.41,1.29l-.8,3.94c-.09,.45-.14,.89-.13,1.35,0,.45,.09,.89,.27,1.3,.18,.42,.45,.76,.82,1.04,.37,.27,.77,.46,1.22,.55Z"/><path class="cls-1" d="M133.26,318.14c-.49-.1-.95-.27-1.39-.52-.44-.25-.81-.57-1.1-.97-.29-.4-.51-.84-.66-1.32-.15-.49-.25-.98-.3-1.47-.05-.49-.05-.99,0-1.48,.05-.5,.12-.99,.22-1.47l2.04-10.01,3.06,.62-2.04,10.01c-.06,.28-.1,.57-.13,.86-.03,.29-.03,.58,0,.87,.02,.29,.09,.58,.19,.86s.24,.54,.41,.76c.18,.23,.4,.41,.66,.55,.27,.14,.54,.24,.82,.3,.28,.06,.57,.08,.87,.05,.3-.02,.57-.1,.82-.24,.25-.14,.48-.32,.68-.54s.37-.46,.51-.72c.14-.26,.25-.52,.34-.8,.09-.28,.16-.56,.22-.84l2.04-10.01,3.06,.62-3.28,16.08-3.06-.62,.53-2.58c-.24,.37-.53,.71-.84,1.03-.32,.32-.68,.56-1.08,.74-.41,.18-.83,.29-1.28,.32-.45,.03-.89,0-1.31-.08Z"/><path class="cls-1" d="M149.73,321.5c-.55-.11-1.09-.27-1.62-.49-.54-.21-1.02-.5-1.45-.86-.43-.36-.8-.79-1.1-1.28-.3-.49-.52-1.01-.65-1.55-.13-.54-.19-1.1-.16-1.68,.02-.57,.09-1.13,.2-1.68l.8-3.94c.11-.55,.27-1.08,.47-1.61,.2-.53,.47-1.02,.81-1.48,.34-.46,.73-.86,1.19-1.19,.46-.34,.96-.59,1.5-.75,.54-.16,1.09-.24,1.66-.23,.57,0,1.12,.07,1.67,.18,.55,.11,1.08,.27,1.61,.49s1,.5,1.44,.86c.43,.36,.79,.79,1.08,1.28,.29,.49,.5,1.01,.63,1.57,.13,.55,.18,1.11,.16,1.68-.02,.56-.09,1.12-.2,1.67l-.67,3.31-8.95-1.82-.13,.64c-.09,.44-.14,.9-.14,1.36,0,.47,.09,.91,.28,1.32,.19,.42,.48,.76,.87,1.03,.39,.27,.8,.45,1.25,.54,.32,.07,.65,.1,.99,.09,.34,0,.66-.07,.97-.2,.31-.13,.58-.32,.81-.58,.23-.26,.39-.55,.48-.87l3.06,.62c-.14,.46-.32,.9-.57,1.32-.24,.43-.54,.8-.88,1.13-.34,.33-.73,.6-1.17,.8-.44,.2-.9,.35-1.37,.45-.47,.1-.95,.12-1.44,.09-.49-.04-.96-.1-1.43-.2Zm-1.04-10.23l5.89,1.2,.13-.64c.09-.45,.13-.89,.13-1.35,0-.45-.09-.89-.27-1.3-.18-.41-.46-.76-.83-1.04-.38-.28-.79-.46-1.23-.55-.45-.09-.89-.08-1.35,.03-.45,.11-.84,.32-1.17,.63-.33,.31-.58,.68-.76,1.09s-.31,.85-.41,1.29l-.13,.64Z"/><path class="cls-2" d="M178.55,327.12l4-19.63-4.61-.94,.54-2.67,12.26,2.5-.54,2.67-4.61-.94-4,19.63-3.03-.62Z"/><path class="cls-1" d="M195.25,330.77c-.55-.11-1.09-.27-1.62-.49-.54-.21-1.02-.5-1.45-.86-.43-.36-.8-.79-1.1-1.28-.3-.49-.52-1.01-.65-1.55-.13-.54-.19-1.1-.16-1.68,.02-.57,.09-1.13,.2-1.68l.8-3.94c.11-.55,.27-1.08,.47-1.61s.47-1.02,.81-1.48c.34-.46,.73-.86,1.19-1.19,.46-.34,.96-.59,1.5-.75,.54-.16,1.09-.24,1.66-.23,.57,0,1.12,.07,1.67,.18s1.08,.27,1.61,.49,1,.5,1.44,.86c.43,.36,.79,.79,1.08,1.28,.29,.49,.5,1.01,.63,1.57,.13,.55,.18,1.11,.16,1.68-.02,.56-.09,1.12-.2,1.67l-.67,3.31-8.95-1.82-.13,.64c-.09,.44-.14,.9-.14,1.36,0,.47,.09,.91,.28,1.32,.19,.42,.48,.76,.86,1.03,.39,.27,.8,.45,1.25,.54,.32,.07,.65,.1,.99,.09,.34,0,.66-.07,.97-.2,.31-.13,.58-.32,.81-.58,.23-.26,.39-.55,.48-.87l3.06,.62c-.14,.46-.33,.9-.57,1.32-.24,.43-.54,.8-.88,1.13-.34,.33-.73,.6-1.18,.8-.44,.2-.9,.35-1.37,.45-.47,.1-.95,.12-1.44,.09-.49-.04-.96-.1-1.43-.2Zm-1.04-10.23l5.89,1.2,.13-.64c.09-.45,.13-.89,.13-1.35,0-.45-.09-.89-.27-1.3-.18-.41-.46-.76-.83-1.04-.38-.28-.79-.46-1.23-.55-.45-.09-.89-.08-1.35,.02-.45,.11-.84,.32-1.17,.63-.33,.31-.58,.68-.76,1.09-.18,.42-.31,.85-.41,1.29l-.13,.64Z"/><path class="cls-1" d="M208.63,333.5c-.41-.08-.8-.2-1.18-.35-.38-.15-.72-.37-1.02-.65-.3-.28-.55-.6-.74-.96-.19-.36-.33-.73-.42-1.14-.09-.41-.12-.82-.11-1.22,0-.41,.05-.81,.13-1.19,.11-.55,.29-1.07,.53-1.57,.24-.5,.56-.93,.96-1.29,.4-.36,.86-.64,1.37-.84,.51-.2,1.04-.34,1.57-.41,.53-.07,1.07-.08,1.62-.03,.55,.05,1.09,.13,1.61,.23l2.12,.43,.28-1.39c.07-.36,.09-.73,.05-1.1-.04-.37-.17-.7-.4-1-.22-.3-.5-.53-.84-.71-.33-.17-.67-.3-1.02-.36-.34-.07-.69-.1-1.02-.1-.34,0-.66,.08-.96,.21-.3,.14-.56,.34-.77,.62s-.35,.57-.42,.89l-3.06-.62c.09-.47,.26-.92,.5-1.35,.24-.44,.53-.82,.87-1.17,.34-.34,.73-.61,1.16-.82,.43-.21,.89-.36,1.37-.45,.48-.09,.96-.12,1.44-.09,.48,.04,.96,.1,1.44,.2s.97,.24,1.45,.41c.48,.17,.93,.41,1.34,.7,.41,.3,.78,.64,1.1,1.04,.32,.4,.56,.84,.73,1.32,.17,.48,.25,.97,.25,1.49,0,.52-.05,1.02-.15,1.5l-2.25,11.04-3.06-.62,.5-2.46c-.27,.39-.59,.73-.97,1.02-.38,.29-.78,.51-1.23,.67-.44,.15-.9,.23-1.38,.24-.48,0-.95-.03-1.41-.13Zm1.76-2.42c.42,.09,.86,.11,1.3,.08,.44-.04,.84-.16,1.2-.37,.36-.21,.65-.5,.87-.88,.22-.37,.38-.78,.47-1.2l.32-1.55-2.12-.43c-.26-.05-.53-.09-.8-.12-.27-.02-.54-.03-.8-.02-.27,0-.53,.04-.8,.11-.27,.06-.51,.16-.74,.31-.23,.14-.42,.33-.56,.57s-.24,.48-.29,.75c-.06,.3-.07,.62-.02,.96,.05,.34,.17,.63,.36,.89,.19,.26,.43,.46,.73,.61,.3,.14,.6,.25,.9,.31Z"/><path class="cls-1" d="M219.21,335.4l3.28-16.08,2.7,.55-.28,1.4c.15-.2,.31-.4,.5-.58,.18-.18,.39-.33,.61-.44,.22-.11,.46-.18,.72-.2,.26-.02,.52,0,.78,.05,.3,.06,.59,.18,.86,.35s.49,.39,.67,.66,.3,.56,.38,.87c.07,.31,.12,.62,.14,.95,.14-.29,.31-.56,.5-.82,.19-.26,.41-.47,.67-.65,.26-.18,.54-.29,.86-.34,.32-.05,.63-.05,.93,.01,.32,.07,.63,.19,.9,.37,.28,.18,.5,.41,.67,.69,.17,.28,.28,.58,.36,.9,.07,.32,.12,.64,.14,.96,.02,.32,.01,.64-.02,.96-.03,.32-.08,.64-.15,.96l-2.45,12.05-2.7-.55,2.45-12.05c.04-.2,.07-.41,.08-.63,.01-.22,0-.43-.04-.64-.04-.21-.14-.4-.28-.56-.15-.17-.32-.27-.52-.31-.22-.05-.43-.02-.63,.08-.2,.1-.36,.23-.48,.41-.12,.18-.22,.37-.29,.57-.07,.21-.13,.41-.17,.61l-2.45,12.05-2.67-.54,2.45-12.05c.04-.2,.07-.41,.08-.63,.01-.22,0-.43-.04-.64s-.14-.4-.28-.56c-.15-.16-.33-.27-.55-.32-.2-.04-.4-.01-.6,.08-.2,.1-.36,.23-.48,.41s-.22,.37-.29,.57c-.07,.21-.13,.41-.17,.61l-2.45,12.04-2.7-.55Z"/></g><rect class="cls-10" x="23.67" y="23.67" width="720.67" height="720.67"/></g><line class="cls-3" x1="58.66" y1="316.44" x2="229.84" y2="351.21"/><line class="cls-3" x1="97.38" y1="335.57" x2="227.65" y2="362.03"/></svg>